<?xml version="1.0" encoding="utf-8"?>
<!-- Generator: Adobe Illustrator 27.0.0, SVG Export Plug-In . SVG Version: 6.00 Build 0)  -->
<svg version="1.1" id="Layer_1" xmlns="http://www.w3.org/2000/svg" xmlns:xlink="http://www.w3.org/1999/xlink" x="0px" y="0px"
	 viewBox="0 0 1920 1009.39" style="enable-background:new 0 0 1920 1009.39;" xml:space="preserve">
<style type="text/css">
	.st0{fill:#FFF;}
</style>
<g>
	<g>
		<path class="st0" d="M417.96,400.07c-14.13,35.05-50.88,49.75-85.93,53.71c-13.57,1.7-32.22-5.65-45.23,0s-6.78,31.66-7.35,45.79
			c-0.57,9.61,5.65,38.44,0,46.92c-7.91,12.44-25.44,6.22-36.75,5.09c-11.31-1.13-28.83,6.22-36.18-3.96
			c-7.91-11.31-0.56-40.14-1.13-53.71c-1.13-36.18,0.57-72.36,1.13-108.54c1.13-43.53-1.13-87.63-1.13-131.16
			c-0.57-19.22-0.57-39.01,0.57-57.66c1.13-19.79,7.91-20.35,26-19.22c44.66,3.39,89.32-4.52,133.42,7.91
			c42.96,12.44,62.75,52.01,62.75,95.54C428.14,319.79,432.66,362.76,417.96,400.07z M293.59,251.95
			c-20.92,0.57-13.57,12.44-13.57,28.83c-0.57,18.09-2.83,38.44-2.26,56.53c0,9.61-3.96,35.05,3.39,41.83
			c5.65,5.09,35.05,0,40.7-1.7c36.75-9.61,31.66-49.75,31.66-79.71C353.52,261.56,325.25,251.95,293.59,251.95z"/>
		<path class="st0" d="M611.87,422.68c-0.56,16.39-1.7,31.66-1.13,47.49c0.57,5.65-0.57,12.44,3.39,14.7
			c4.52,2.83,15.83-0.57,20.92-1.13c19.79-1.7,39.01-1.13,58.23-1.13c13,0,40.7-4.52,45.23,10.18c2.26,6.78-1.13,20.92-0.56,28.83
			c0.56,8.48,3.39,20.92-2.83,28.27c-10.18,11.31-42.4,2.83-56.53,3.96c-40.7,3.39-83.1,1.13-123.24,0
			c-19.22-0.57-21.48-7.92-19.79-27.14c1.7-23.18-0.57-45.23-0.57-68.4c-1.13-42.96,0-88.19,2.26-131.15
			c1.7-24.87-1.13-49.75-0.57-74.06c0-12.44,0.57-24.87,1.13-37.31c0.57-7.35-3.39-23.18,0.57-29.96
			c6.22-11.31,26.57-5.09,37.88-5.09c5.09,0,35.05-2.83,35.05,5.65C611.3,265.52,613,344.1,611.87,422.68z"/>
		<path class="st0" d="M957.27,177.33c9.05,0,20.92-2.83,28.83,0.57c15.83,6.22,14.13,27.7,16.96,41.27
			c8.48,41.27,21.48,83.67,34.49,123.81c14.13,42.96,26.57,88.76,36.18,132.29c4.52,19.79,12.44,40.14,16.39,59.36
			c4.52,22.61-15.83,16.96-31.09,15.83c-9.04-0.57-25.44,3.39-33.35,0.57c-11.31-3.96-9.04-6.78-11.87-18.09
			c-3.39-13-7.35-56.53-20.35-62.75c-6.22-2.83-20.35-0.57-26.57-1.13c-10.74,0-22.05-0.57-32.79-1.13
			c-25.44-0.57-24.87,14.7-30.53,35.62c-3.39,12.44-3.39,41.27-16.39,48.05c-6.78,3.39-18.66,1.13-25.44,1.13
			c-9.61-0.57-23.74,1.7-32.79-0.57c-19.22-4.52-7.91-23.18-3.39-37.88c6.78-25.44,14.13-50.88,21.48-76.32
			c14.13-48.05,27.14-97.24,38.44-146.42c5.65-22.61,13.57-44.66,18.66-67.27c1.7-5.65,7.91-46.92,15.26-46.92
			C931.83,177.33,944.83,177.33,957.27,177.33z M953.88,313.57c-3.39,0.57-6.22,26.57-6.78,28.83c-2.83,14.13-8.48,28.27-13,42.4
			c-4.52,13.57-2.83,13,10.74,13.57c6.78,0.56,27.7,6.78,32.79-0.57C981.01,393.85,955.57,313.57,953.88,313.57z"/>
		<path class="st0" d="M1411.21,177.9c19.79,2.83,14.13,14.7,13.57,29.96c0,24.31-1.13,45.23,0.57,66.14
			c3.39,67.27-1.13,136.81-1.13,204.65c0,16.96,8.48,43.53,3.96,59.36c-4.52,14.13-17.52,14.7-30.53,14.7
			c-10.74,0-35.62,3.39-43.53-2.26c-9.61-6.78-15.26-35.05-19.79-45.23c-13-29.96-27.14-59.92-40.7-89.89
			c-1.7-3.96-20.92-52.01-23.18-52.01c-2.26,0.57-1.13,47.49-1.13,53.71c0,26.57,2.26,55.4,0.57,80.84
			c-0.57,12.44,1.13,26,0.57,37.88c-0.57,19.22-15.83,15.83-31.66,16.39c-10.18,0-35.05,5.09-41.83-3.39
			c-2.83-3.96,0.57-13.57,0.57-18.09c0.57-10.18-1.13-20.92-1.7-31.09c-2.83-71.8,1.13-141.9-1.13-213.69
			c-0.57-18.66,1.7-37.88,2.26-57.1c0-9.61-7.35-41.83,1.7-49.18c7.91-6.22,33.92-1.13,44.66-1.7c23.18-0.57,27.14,1.7,36.18,23.18
			c15.26,35.62,28.27,72.36,45.79,106.28c3.39,6.78,22.05,58.23,25.44,57.66c6.22-1.13-2.26-78.58-1.7-83.67
			c0.57-5.65-2.26-102.32,6.78-102.32C1373.34,179.03,1393.69,175.63,1411.21,177.9z"/>
		<path class="st0" d="M1536.71,208.99c-0.57-6.22-3.39-16.39-1.13-22.61c7.35-17.53,44.1-7.91,59.36-8.48
			c24.31-0.57,48.62,1.7,72.93,2.26c25.44,0,50.88-4.52,76.88-2.83c16.39,1.13,36.18-6.78,39.01,14.7
			c1.7,11.31,3.96,49.75-6.22,55.97c-5.09,2.83-15.83,0-21.48,0c-11.87,1.13-22.61,1.7-34.48,0.57c-27.7-1.7-23.74,6.22-23.18,29.4
			c0.56,44.1-2.83,89.32-1.13,133.98c1.13,22.05-1.7,43.53-1.7,65.58l2.26,35.05c0,7.91,3.96,25.44,0.57,32.79
			c-6.78,13-29.96,6.78-42.96,6.22c-24.87-1.7-33.92,1.13-33.35-27.14c0.57-50.31-2.26-101.76,0-152.07
			c1.13-27.14,2.26-55.97-0.57-83.1c-0.56-10.18,1.7-20.35,0.57-30.53c-1.13-11.31-2.83-11.31-14.13-11.31
			c-10.74,0-72.36,10.18-72.36-3.96C1535.58,231.6,1537.84,220.86,1536.71,208.99z"/>
	</g>
</g>
<g>
	<g>
		<path class="st0" d="M328.49,758.64c5.84,0.31,10.76-1.54,14.14,4.3c2.77,4.61,0.61,12.91,0.31,17.82
			c-1.54,32.88-15.67,57.16-49.78,63.31c-29.5,5.53-70.37-0.62-84.82-30.42c-6.15-12.6-7.07-28.58-6.15-41.79
			c1.54-18.13,0.61-37.8,0.31-56.24c-0.31-30.73,4-67.61,39.95-75.29c31.96-6.76,72.22-7.68,91.89,23.66
			c5.84,9.22,10.76,26.12,9.22,37.49c-1.84,13.52-23.97,10.14-34.42,8.3c-5.84-0.92-5.84-0.92-7.07-7.07
			c-1.84-8.6-0.92-12.6-8.6-18.44c-11.06-8.6-32.88-9.22-43.02,1.84c-11.06,12.29-7.38,33.19-7.38,48.25
			c0.31,16.9-3.07,40.57,4.61,56.24c6.15,13.52,22.43,15.98,35.65,12.29c18.75-4.92,19.05-24.58,19.05-40.87
			C302.37,755.26,324.19,758.64,328.49,758.64z"/>
		<path class="st0" d="M532.23,715.31c0.31,11.06-0.92,22.43-0.61,33.5c0.31,13.21,0,26.74-0.31,39.95
			c-0.61,21.2-8.6,40.57-28.27,50.09c-14.14,6.76-29.5,7.07-43.64,7.07c-19.67,0-43.02-3.38-56.55-19.36
			c-11.37-13.52-11.99-33.19-11.99-50.09c0.31-22.43-1.54-45.48-0.61-67.61c0.92-19.36,1.23-41.18,16.6-55.62
			c15.98-15.37,40.56-15.67,61.15-15.37c16.9,0,39.95,6.15,50.71,17.52C532.85,670.44,531.31,695.95,532.23,715.31z M472.62,680.28
			c-11.68-4.3-25.2-1.54-33.8,7.68c-9.83,9.83-7.38,27.35-7.38,40.26c0,14.44-0.31,28.89-0.31,43.33c0,11.37,3.38,25.81,14.44,31.35
			c9.83,4.92,26.74,4.3,35.34-2.46c11.37-8.6,9.22-27.66,9.83-40.26c0.31-16.59-1.23-32.58-1.23-48.86
			C489.52,696.87,487.06,686.12,472.62,680.28z"/>
		<path class="st0" d="M752.26,731.91c1.23,31.35-2.77,63-0.61,94.65c0.31,5.22,1.54,11.98-3.38,15.67
			c-5.22,3.69-14.14-0.62-19.98-0.31c-7.99,0.31-12.29,3.69-15.67-4.92c-2.46-6.45-0.31-17.82,0-24.28
			c0.61-15.37,1.23-31.35,0.61-46.71c-0.31-8.6,0.31-17.52-0.31-25.81c-0.31-0.92-0.31-11.98,0-13.83
			c-1.23,3.07-21.51,70.38-23.36,77.14c-2.46,10.14-5.22,25.51-10.45,34.73c-4,6.45-21.82,8.3-27.97,3.07
			c-7.68-6.76-28.89-117.39-33.19-116.78c-1.84,0.62,0,37.8,0.31,42.1c0,15.37-0.31,30.42-0.31,45.79c0,9.83,5.22,28.58-7.68,30.12
			c-5.53,0.92-12.29-0.61-17.82,0c-3.38,0.31-10.45,2.77-13.21,0c-1.84-2.46-0.61-9.53-0.61-12.29l0.61-25.2
			c0.31-28.27,0.31-55.93-0.61-84.2c-0.31-14.75-0.61-29.81,0-44.56c0.31-7.07,0.92-13.83,0.92-20.59c0-2.46-2.46-12.91-0.31-15.06
			c2.77-3.07,13.52-0.31,16.9-0.31c4.61-0.31,8.91-1.54,13.52-1.84c12.6-0.31,17.21,3.38,20.28,15.06
			c3.38,14.14,8.91,27.97,13.52,42.1c4.3,14.14,7.38,28.89,11.98,43.02c2.15,5.53,5.53,18.13,6.76,22.13c2.46,7.38,3.07,5.22,4,1.54
			c3.07-11.68,4.61-14.75,5.53-18.13c8.6-28.89,18.13-57.77,27.35-86.97c4.61-15.37,7.99-18.75,24.89-17.52
			c3.07,0.31,26.74-1.23,26.74,2.77C750.73,672.29,751.03,702.1,752.26,731.91z"/>
		<path class="st0" d="M978.74,741.43c-0.31,15.37-0.92,30.73-0.61,46.1c0.31,8.91,0,17.82-0.31,26.74c0,6.76,3.07,14.44,2.15,20.9
			c-0.92,6.76-4.61,7.38-11.06,7.38c-5.53-0.31-11.98-0.31-16.9-0.31c-1.84,0.31-7.99,1.23-10.14-0.92
			c-3.38-3.38-2.46-19.98-2.46-24.28c0.92-19.36,1.23-38.72,0.61-58.08c-0.31-1.54,1.54-34.11,0-34.42
			c-2.77-0.31-16.9,61.16-18.44,66.07c-3.38,13.52-9.53,25.81-12.29,39.64c-2.77,14.14-11.06,13.21-24.28,11.68
			c-7.07-0.61-8.6-1.54-10.76-8.91c-1.84-6.45-2.15-13.21-4.61-19.98c-4.92-13.83-7.99-28.58-12.29-42.72
			c-0.31-1.84-11.06-48.25-12.6-47.94c-1.84,0.31,0,24.89,0.31,27.66c0.31,23.66,0.31,47.33,0.61,70.99
			c0,4.61,0.61,10.45-0.31,14.75c-0.92,5.84,0,4-4.92,5.84c-6.45,2.46-17.82,1.23-24.89,1.23c-9.53-0.31-11.37-4.3-10.76-13.52
			c0.31-9.53,0-18.75,0.31-27.97c0.61-8.91,1.84-16.59,0.92-25.51c-0.92-11.37-1.23-22.43-0.31-33.8
			c1.54-17.82,0.92-35.96,0.61-53.78c-0.31-10.45,0.31-20.59,0-31.04c-0.31-9.53-3.38-16.29,7.68-17.82
			c8.6-0.92,18.13-0.61,26.74-0.92c12.6-0.31,14.44,3.07,17.21,14.14c4.92,20.59,14.14,40.57,18.13,60.85
			c2.46,10.76,6.15,21.2,9.22,31.96c0.61,1.84,3.38,20.59,5.84,20.59s11.06-34.73,12.6-38.11c7.68-19.05,11.99-39.34,18.75-58.7
			c2.46-7.07,3.38-14.75,5.84-21.82c3.38-8.3,7.38-8.91,15.98-8.6c4.3,0,33.19-2.46,33.19,3.07
			C977.52,675.05,979.05,708.24,978.74,741.43z"/>
		<path class="st0" d="M1153.29,639.41c4.61,0,12.6-2.77,16.59,0.61c4.61,3.69,2.46,15.98,2.77,21.51c0.92,16.9-0.61,34.11,0,51.01
			c0.31,16.9-0.61,33.5-0.31,50.09c0.62,32.57-3.69,69.14-40.26,79.29c-23.97,6.76-62.38,6.15-81.44-11.37
			c-24.28-22.74-19.36-54.39-20.28-84.82c-0.31-15.37,0.92-31.04,1.23-46.4c0.31-8.91-0.61-17.52-0.92-26.43
			c0-7.99-2.46-19.05-0.61-27.04c1.54-5.53,3.07-6.15,8.6-6.76c7.38-0.61,16.9,0.31,24.58,0.31c8.3,0.31,9.83,2.15,9.22,11.37
			c-0.31,10.14-0.92,19.98-0.31,30.42c0.62,14.75,0,29.81,0,44.56c0,7.68,0.31,15.37,0.31,23.05c0.31,10.45-2.77,21.2-0.61,31.65
			c3.07,16.29,19.36,26.43,35.65,23.36c21.51-4.3,24.28-19.98,23.66-39.34c-1.54-40.57,0-81.75,0-122.31
			C1131.16,635.41,1149.6,639.1,1153.29,639.41z"/>
		<path class="st0" d="M1339.21,639.41c10.76,1.54,7.68,7.99,7.38,16.29c0,13.21-0.61,24.58,0.31,35.96
			c1.84,36.57-0.62,74.37-0.62,111.25c0,9.22,4.61,23.66,2.15,32.27c-2.46,7.68-9.53,7.99-16.59,7.99c-5.84,0-19.36,1.84-23.66-1.23
			c-5.22-3.69-8.3-19.05-10.76-24.58c-7.07-16.29-14.75-32.58-22.13-48.86c-0.92-2.15-11.37-28.27-12.6-28.27
			c-1.23,0.31-0.61,25.81-0.61,29.2c0,14.44,1.23,30.12,0.31,43.95c-0.31,6.76,0.61,14.14,0.31,20.59
			c-0.31,10.45-8.6,8.6-17.21,8.91c-5.53,0-19.05,2.77-22.74-1.84c-1.54-2.15,0.31-7.38,0.31-9.83c0.31-5.53-0.62-11.37-0.92-16.9
			c-1.54-39.03,0.62-77.13-0.61-116.16c-0.31-10.14,0.92-20.59,1.23-31.04c0-5.22-4-22.74,0.92-26.74
			c4.3-3.38,18.44-0.61,24.28-0.92c12.6-0.31,14.75,0.92,19.67,12.6c8.3,19.36,15.37,39.34,24.89,57.77
			c1.84,3.69,11.99,31.65,13.83,31.35c3.38-0.61-1.23-42.72-0.92-45.48c0.31-3.07-1.23-55.62,3.69-55.62
			C1318.62,640.02,1329.68,638.18,1339.21,639.41z"/>
		<path class="st0" d="M1404.04,764.17c0.92-23.36-1.54-46.71-0.92-70.37c0.31-11.06-0.31-21.82,0.31-32.88
			c0-4.3-1.54-11.37-0.31-15.37c2.15-5.84,1.84-4.92,7.68-6.15c7.07-0.92,17.21,0,24.58,0c9.83,0,10.14,6.15,9.53,14.14
			c-1.84,38.72-1.54,77.14-0.61,115.86c0,12.29,0.61,24.58,0,37.18c0,8.91,1.54,19.67,0,28.58c-2.46,11.06-11.99,7.99-21.2,7.68
			c-1.84,0-19.67,1.54-19.67-2.77C1403.43,814.88,1403.12,789.68,1404.04,764.17z"/>
		<path class="st0" d="M1482.71,648.63c0-12.29,12.29-9.83,21.82-9.22c25.2,1.54,50.09,0.61,75.29,1.23c9.22,0,22.13-4,31.04-1.23
			c8.6,2.77,6.45,14.75,6.15,21.82c-0.31,11.06,0.92,16.59-10.76,16.9c-6.76,0-13.52,0.31-20.28,0.31
			c-2.77,0.31-13.52-1.23-15.67,0.92c-1.84,1.84,0.31,6.76,0.62,9.22c0,5.22-1.54,10.76-1.54,15.98c0,14.44,0.31,29.19,0.62,43.33
			c0.31,25.51-1.54,51.63,0,77.13c0.31,5.84,2.46,13.83-2.77,17.21c-2.77,2.15-8.3,0.61-11.68,0.61c-6.45,0-13.21,1.23-19.36,0.61
			c-8.91-1.23-7.68-8.3-7.38-16.29c0.31-11.37,0-23.05,0.31-34.73c0.92-29.19,0.61-58.7,0-87.89c0-6.15,1.84-15.06,0.31-21.21
			c-1.54-6.45-3.69-5.22-10.45-4.92c-4.92,0-35.34,3.38-35.34-2.77C1483.63,667.37,1482.71,657.54,1482.71,648.63z"/>
		<path class="st0" d="M1754.37,640.63c2.77,0,10.76-2.15,13.21-0.92c5.53,2.77,1.23,8.91-0.61,13.52
			c-9.83,21.82-19.36,43.95-28.58,66.07c-4.3,10.14-8.91,18.13-11.06,29.19c-1.84,10.76-0.92,21.51-1.23,32.27
			c0,11.68,0.31,23.36,0.31,35.03c0,7.68,3.69,22.43-4,26.43c-4,1.84-11.37,0-15.67,0c-4.92,0-12.6,1.54-16.9-0.62
			c-8.3-4.3-4.92-15.37-4.61-23.36c0-11.68,1.23-23.36,0.31-35.03c-0.92-11.68,3.38-25.2,0-36.57
			c-6.76-23.36-21.82-43.95-29.81-66.69c-3.69-10.76-11.68-20.9-14.44-31.65c-3.07-11.37,4.92-8.6,12.6-8.3
			c9.83,0.62,20.9-3.69,27.35,4.92c7.38,9.53,11.37,22.74,16.9,33.5c1.23,2.46,4.92,13.52,8.3,13.83c1.23,0,4.3-9.22,5.22-11.06
			c6.76-12.91,14.44-26.43,20.28-39.95C1735,636.02,1749.45,640.94,1754.37,640.63z"/>
	</g>
</g>
<path class="st0" d="M1911.04,757.52c-1.13-30.85,0.57-62.99,0.57-93.84c0-88.69,2.83-178.68,1.13-267.37
	c-1.13-86.12-2.83-169.67-0.57-255.79c0.57-16.71,1.7-113.62-5.08-119.54c-6.78-5.92-7.28-5.38-15.92-6.95
	c-0.77-0.14-1.58-0.26-2.41-0.37c-1.74-0.85-6.4-1.45-21.81-3.34c-29.82-3.96-94.41,0.56-129.19,0.56
	c-173.9,0.57-350.28,1.13-524.18,0.57c-340.33-0.57-680.68,0.56-1021.01-1.13c-44.74,0-149.07-4.52-176.4,4.52
	C5.37,18.35,6.08,30.16,8.16,40.49C4.88,56.33,9.1,87.65,9.1,104.79c0.57,88.75,1.13,178.75,0.57,267.5
	C9.1,545.97,10.22,719.65,8.53,893.33c0,10.54-0.96,27.57-1.11,44.21c-0.79,3.64-0.57,7.83,0.06,11.97
	c0.25,11.4,1.13,21.77,3.28,28.65c0.16,11.08,6.92,19.96,65.02,21.28c77.03,1.7,156.52-1.13,233.53-2.26
	c57.13-0.56,106.83,1.7,163.95,0.57c59.62-1.13,121.74,0.57,181.36,0.57c171.41,0,345.31,2.83,516.72,1.13
	c166.45-1.13,327.91-2.83,494.36-0.57c28.69,0.5,188.79,4.58,224.12-2.05c11.83,0.2,21.51-2.12,22.9-33.63
	c1.7-39.86-1.13-80.99-2.26-120.83C1909.91,812.8,1912.17,787.08,1911.04,757.52z M1737.75,923.69
	c-173.9,0.57-350.28,1.13-524.18,0.57c-340.33-0.57-680.68,0.56-1021.01-1.13c-25.05,0-68.77-1.42-107.21-1.08
	c-0.17-29.45-1.94-59.22-2.78-88.3c-0.56-29.15,1.7-54.52,0.57-83.67c-1.13-30.43,0.57-62.12,0.57-92.55
	c0-87.47,2.83-176.22,1.13-263.69c-1.13-84.94-2.83-167.34-0.57-252.28c0.25-7.2,1.36-30.64,1.64-54.74
	c73.86,1.26,149.76-1.37,223.4-2.45c57.13-0.56,106.83,1.7,163.95,0.57c59.62-1.13,121.74,0.57,181.36,0.57
	c171.41,0,345.31,2.83,516.72,1.13c166.45-1.13,327.91-2.83,494.36-0.57c20.65,0.36,109.34,2.57,170.63,1.31
	c0.36,5.9,0.64,11.36,0.64,15.86c0.57,89.98,1.13,181.24,0.57,271.23c-0.57,176.09,0.56,352.2-1.13,528.3
	c0,5.04-0.21,11.53-0.46,18.76C1804,921.31,1763.02,923.69,1737.75,923.69z"/>
</svg>
